<?xml version="1.0" encoding="UTF-8"?>
<svg width="104px" height="22px" viewBox="0 0 104 22" version="1.1" xmlns="http://www.w3.org/2000/svg" xmlns:xlink="http://www.w3.org/1999/xlink">
    <!-- Generator: Sketch 52.5 (67469) - http://www.bohemiancoding.com/sketch -->
    <title>wru-logo</title>
    <desc>Created with Sketch.</desc>
    <g id="Page-1" stroke="none" stroke-width="1" fill="none" fill-rule="evenodd">
        <g id="CB-SITE--design-2-Copy" transform="translate(-331.000000, -5049.000000)">
            <g id="Our-Verticals" transform="translate(0.000000, 4627.000000)">
                <g id="Group-78" transform="translate(76.000000, 156.551627)">
                    <g id="Group-77" transform="translate(156.000000, 227.000000)">
                        <g id="Group-75">
                            <g id="Group-32">
                                <g id="wru-logo" transform="translate(99.368421, 37.689982)">
                                    <path d="M30.9827368,3.54729246 L24.9612632,22.1705779 L19.3376842,22.1705779 L15.7831579,10.8369785 L12.0694737,22.1705779 L6.44589474,22.1705779 L0.424421053,3.54729246 L5.83578947,3.54729246 L9.576,15.4395904 L13.5018947,3.54729246 L18.3296842,3.54729246 L22.0698947,15.5460092 L25.9692632,3.54729246 L30.9827368,3.54729246 Z M40.9831579,17.2221049 L38.1183158,17.2221049 L38.1183158,22.1705779 L32.8661053,22.1705779 L32.8661053,3.54729246 L41.3545263,3.54729246 C43.0345347,3.54729246 44.4934675,3.82663894 45.7313684,4.3853403 C46.9692693,4.94404165 47.9242072,5.74217448 48.5962105,6.77976271 C49.2682139,7.81735094 49.6042105,9.03672053 49.6042105,10.4379081 C49.6042105,11.7858859 49.2903189,12.9609148 48.6625263,13.9630299 C48.0347337,14.9651451 47.137269,15.7499757 45.9701053,16.3175453 L49.9755789,22.1705779 L44.352,22.1705779 L40.9831579,17.2221049 Z M44.2989474,10.4379081 C44.2989474,9.56881705 44.0248448,8.89483823 43.4766316,8.41595135 C42.9284183,7.93706448 42.1149528,7.69762463 41.0362105,7.69762463 L38.1183158,7.69762463 L38.1183158,13.1515868 L41.0362105,13.1515868 C42.1149528,13.1515868 42.9284183,12.916581 43.4766316,12.4465624 C44.0248448,11.9765438 44.2989474,11.306999 44.2989474,10.4379081 Z M61.0635789,22.5430436 C58.3048283,22.5430436 56.1606392,21.7892514 54.6309474,20.2816446 C53.1012555,18.7740378 52.3364211,16.6368155 52.3364211,13.8699135 L52.3364211,3.54729246 L57.5886316,3.54729246 L57.5886316,13.7102853 C57.5886316,16.6900259 58.7646198,18.1798738 61.1166316,18.1798738 C63.450959,18.1798738 64.6181053,16.6900259 64.6181053,13.7102853 L64.6181053,3.54729246 L69.7907368,3.54729246 L69.7907368,13.8699135 C69.7907368,16.6368155 69.0259024,18.7740378 67.4962105,20.2816446 C65.9665187,21.7892514 63.8223296,22.5430436 61.0635789,22.5430436 Z" id="WRU" fill="#007BFF"></path>
                                    <path d="M75.5823158,22.4100201 C74.7334694,22.4100201 74.0172661,22.1262395 73.4336842,21.5586699 C72.8501023,20.9911003 72.5583158,20.2727807 72.5583158,19.4036897 C72.5583158,18.5168622 72.8456813,17.7985426 73.4204211,17.2487096 C73.9951608,16.6988765 74.7157851,16.4239641 75.5823158,16.4239641 C76.4665307,16.4239641 77.1915761,16.6988765 77.7574737,17.2487096 C78.3233713,17.7985426 78.6063158,18.5168622 78.6063158,19.4036897 C78.6063158,20.2727807 78.3189502,20.9911003 77.7442105,21.5586699 C77.1694708,22.1262395 76.4488464,22.4100201 75.5823158,22.4100201 Z M87.36,7.51139178 C89.7473804,7.51139178 91.5688358,8.05678254 92.8244211,9.14758042 C94.0800063,10.2383783 94.7077895,11.9100232 94.7077895,14.1625651 L94.7077895,22.1705779 L90.0126316,22.1705779 L90.0126316,20.3082493 C89.2875753,21.7094368 87.8728526,22.4100201 85.7684211,22.4100201 C84.6543102,22.4100201 83.6905304,22.214921 82.8770526,21.8247168 C82.0635749,21.4345127 81.4490547,20.9068582 81.0334737,20.2417376 C80.6178927,19.5766169 80.4101053,18.8183907 80.4101053,17.9670363 C80.4101053,16.6013219 80.9317843,15.5415788 81.9751579,14.7877754 C83.0185315,14.033972 84.6277786,13.657076 86.8029474,13.657076 L89.6677895,13.657076 C89.579368,12.1317326 88.562536,11.3690723 86.6172632,11.3690723 C85.9275755,11.3690723 85.2290562,11.4799241 84.5216842,11.701631 C83.8143123,11.9233379 83.2130551,12.2292888 82.7178947,12.6194929 L81.0202105,9.18748746 C81.816004,8.65539093 82.7842048,8.24302231 83.9248421,7.95036922 C85.0654794,7.65771613 86.2105206,7.51139178 87.36,7.51139178 Z M87.1743158,19.2174569 C87.7578977,19.2174569 88.2707346,19.0755666 88.7128421,18.7917818 C89.1549496,18.507997 89.4732622,18.0911943 89.6677895,17.5413612 L89.6677895,16.2909406 L87.4926316,16.2909406 C86.0248348,16.2909406 85.2909474,16.7786884 85.2909474,17.7541987 C85.2909474,18.1976125 85.4589457,18.5523382 85.7949474,18.8183865 C86.130949,19.0844347 86.5907339,19.2174569 87.1743158,19.2174569 Z M97.8909474,7.75083402 L102.930947,7.75083402 L102.930947,22.1705779 L97.8909474,22.1705779 L97.8909474,7.75083402 Z M100.410947,6.15455241 C99.4913638,6.15455241 98.7486344,5.89737628 98.1827368,5.3830163 C97.6168393,4.86865632 97.3338947,4.23015007 97.3338947,3.46747838 C97.3338947,2.70480668 97.6168393,2.06630043 98.1827368,1.55194045 C98.7486344,1.03758047 99.4913638,0.78040434 100.410947,0.78040434 C101.330531,0.78040434 102.07326,1.02427826 102.639158,1.51203341 C103.205055,1.99978856 103.488,2.6249926 103.488,3.3876643 C103.488,4.18580909 103.205055,4.8464857 102.639158,5.36971396 C102.07326,5.89294221 101.330531,6.15455241 100.410947,6.15455241 Z" id=".ai" fill="#4A4A4A"></path>
                                </g>
                            </g>
                        </g>
                    </g>
                </g>
            </g>
        </g>
    </g>
</svg>